PathFileType	4	(X/Y/Z)	pose_F01_0-96.trc
DataRate	CameraRate	NumFrames	NumMarkers	Units	OrigDataRate	OrigDataStartFrame	OrigNumFrames
30	30	7	21	m	30	84	96
Frame#	Time	CHip			RHip			RKnee			RAnkle			RBigToe			RSmallToe			RHeel			LHip			LKnee			LAnkle			LBigToe			LSmallToe			LHeel			Neck			Nose			RShoulder			RElbow			RWrist			LShoulder			LElbow			LWrist			
		X1	Y1	Z1	X2	Y2	Z2	X3	Y3	Z3	X4	Y4	Z4	X5	Y5	Z5	X6	Y6	Z6	X7	Y7	Z7	X8	Y8	Z8	X9	Y9	Z9	X10	Y10	Z10	X11	Y11	Z11	X12	Y12	Z12	X13	Y13	Z13	X14	Y14	Z14	X15	Y15	Z15	X16	Y16	Z16	X17	Y17	Z17	X18	Y18	Z18	X19	Y19	Z19	X20	Y20	Z20	X21	Y21	Z21	
84	2.8	-0.14220164369931204	1.8277250644626355	-0.5002145447943963	-0.15395151718487288	1.8243405099246628	-0.44596261551924693	-0.13828250691962593	1.7045589844976432	-0.43880323156660495	-0.12350784288017694	1.581481576510889	-0.4522488465473272	-0.16493008801429673	1.5611681013995644	-0.44142039236655434				-0.11699463221945738	1.579964320532228	-0.45452944277463625	-0.13156721770488194	1.8289671558409863	-0.55178556668774	-0.15833297538509214	1.7095014523177066	-0.537859111595405	-0.16584411919184855	1.5772276425767389	-0.5361111284791256	-0.20379668390633593	1.5387944894714989	-0.5441162955123174	-0.19404157716754558	1.5473215053588867	-0.5589238929956967	-0.1514889150104263	1.5567678134847007	-0.5308123177557408	-0.13825435239334083	1.9724089091751444	-0.5171988131737958	-0.1746820814051135	2.0318153074533236	-0.5277256621592321	-0.15733602793259527	1.9682973838437403	-0.4340911641315791	-0.16308265788676427	1.8853204159740462	-0.40841715133213047	-0.17322369130264204	1.8138655883848873	-0.3947490343825374	-0.11614909297056049	1.9763675429649645	-0.5970709505033536	-0.10689126439283558	1.9005522398434418	-0.6181935814538462	-0.11058075105972608	1.8289260631158268	-0.6142116718077759
85	2.8333333333333335	-0.1443265293799863	1.826333046746231	-0.4977478604925957	-0.1532519229580943	1.8228626896040119	-0.44242562276597946	-0.13746639184322013	1.7033639586421947	-0.4440455507221695	-0.1257852676870266	1.589286134404183	-0.45184749664763224	-0.16493008801429673	1.5611681013995644	-0.44142039236655434				-0.11670644163465091	1.5819162062011423	-0.4571004264570713	-0.13179773911584478	1.8303488945986803	-0.5518883047092407	-0.16049574923132107	1.7064003778022299	-0.5350555339376905	-0.18033572426117625	1.5674544968217596	-0.5331831840259341	-0.2253425449573343	1.5366209031779372	-0.5401469411725872	-0.21661554300555685	1.5398646622799126	-0.5617973527426301	-0.17111857425763194	1.5574133114273245	-0.528247958102168	-0.14124321519935887	1.9723603129715217	-0.5181123526721235	-0.17859731867427703	2.032805012851756	-0.5232449598776443	-0.15927938968545038	1.9681891760106804	-0.43186329061747525	-0.166108877595174	1.8862970083308659	-0.400957192226945	-0.1736781336240963	1.8154109394107463	-0.3945635753836045	-0.12362649623172853	1.9777467896287901	-0.6051430121559218	-0.1099536850027264	1.9024658418136657	-0.6194886892873448	-0.11224069461439426	1.832109604989486	-0.6210719884348118
86	2.8666666666666667	-0.1493591403468838	1.826175335865703	-0.49632770204418347	-0.1609296259469476	1.8210401922838715	-0.4419616663856855	-0.14209900065532186	1.7036534026708694	-0.4432554720976889	-0.12941467242794735	1.5893284403842092	-0.448047372091215	-0.16493008801429673	1.5611681013995644	-0.44142039236655434				-0.11778196475787929	1.5813954192760284	-0.4517037649046849	-0.1378946151589618	1.8293564392180315	-0.5533904748480029	-0.16255301512844803	1.7030810205332603	-0.5324885804012204	-0.19057088333890607	1.559984449163117	-0.5253099959101939	-0.2373715009107589	1.533088581336949	-0.5357391834929238	-0.2278681441175346	1.5342392853540538	-0.5537309567415885	-0.18477249718442593	1.5455647369351924	-0.5209062085425329	-0.14616736772506134	1.9720690442862796	-0.516658544157227	-0.18077347435884497	2.0327562533367214	-0.5211074339205481	-0.16329073706592176	1.9668839574786856	-0.4273686810209856	-0.1717799625666535	1.8840026145704123	-0.40231820669154467	-0.1792772123055657	1.813036253461679	-0.3964518571761631	-0.12674372837695508	1.9762569248943473	-0.605893036247409	-0.11418622783863758	1.9010959125369826	-0.6143901744217685	-0.11626815133197946	1.830677832737762	-0.6250311744236614
87	2.9	-0.1563858012950886	1.822578809509781	-0.49226820922244807	-0.1649020308146392	1.8167208000591168	-0.4369578100028678	-0.14429538140953577	1.7040990305758639	-0.44103187685955203	-0.13001471569879308	1.590169415900271	-0.44722169971553555	-0.16493008801429673	1.5611681013995644	-0.44142039236655434				-0.11882392289066773	1.5838557846597667	-0.4508163816483214	-0.1477383650194693	1.825303832771332	-0.5591641780012205	-0.16556456997480726	1.7027032289118456	-0.5333107393465081	-0.1951296974657294	1.5562867739950133	-0.520096391987112	-0.24215354013677873	1.530699439515669	-0.5350191895003161	-0.23402425355264456	1.5327282584403232	-0.5475678887606158	-0.18758634088368745	1.5410543722289962	-0.5219200683435294	-0.151276902285234	1.9709114893508606	-0.5153565803416724	-0.18367312150919285	2.0328129473230954	-0.5221064318926834	-0.16803606125610623	1.9679591005302006	-0.42623908147386597	-0.1728058809477978	1.8837599232762843	-0.3968262545684816	-0.1811112654634904	1.8141358321910788	-0.39449432219948716	-0.13311204590201392	1.975938453668323	-0.5992077968955188	-0.12362957119920108	1.894561301653603	-0.6162223830444594	-0.12910149507340413	1.8220564830213017	-0.618611286186482
88	2.933333333333333	-0.16243495161684623	1.8223421595832716	-0.5029121903140054	-0.16984775282195275	1.8173748312866038	-0.43584753731353	-0.14937893316188353	1.7023748949240556	-0.4394346258382198	-0.1278743851588892	1.5892327368278891	-0.44977828125346625	-0.16493008801429673	1.5611681013995644	-0.44142039236655434				-0.11825936579802578	1.5837743168737557	-0.4517584182576432	-0.1528340421451848	1.8252537691185207	-0.5578928703947275	-0.16752422945808895	1.7014789017903122	-0.5312621468198637	-0.19759138281454935	1.5549534512858452	-0.5172464658598256	-0.2459503677499408	1.5247676750153474	-0.5349464451200595	-0.23595583194352632	1.52867862274928	-0.5488537114545335	-0.18988466183501204	1.5391709594545142	-0.5194810077310569	-0.15535282445594598	1.9709253452539572	-0.5110247759612413	-0.18761210522458754	2.033077188718467	-0.5260443015154398	-0.1710177060902164	1.9680316676276475	-0.42729014645868185	-0.17596784095128534	1.8847739759983724	-0.398404502847233	-0.18624563131287905	1.814720396316745	-0.3933482950622654	-1.7496110929024613	1.8876682093500374	1.1817582361412964	-0.12633207798242574	1.8987720913773818	-0.6055379143198001	-0.13216967664542	1.8249949447387188	-0.6196487732753654
89	2.966666666666667	-0.16844946547264436	1.82228656557579	-0.5053087520396405	-0.17697978012776683	1.8201530827362264	-0.45059523699116205	-0.14836002933784614	1.702095815143729	-0.4450415411024499	-0.1259754824777155	1.5899378453756197	-0.4518496884037543	-0.16493008801429673	1.5611681013995644	-0.44142039236655434				-0.11784343693757485	1.581606263170356	-0.45610240147380265	-0.158993101629264	1.8267897701114584	-0.5598358442100936	-0.1754607141272003	1.7010457987825394	-0.5268225616671686	-0.1974446966491933	1.556688437600533	-0.5178784932647398	-0.2477860607607159	1.517335427853154	-0.5327191996180198	-0.2360672537858551	1.526102039036338	-0.5486612926971403	-0.18984181308362474	1.54133630297362	-0.5200750676448503	-0.16087622461194176	1.972700203042755	-0.5215467555625084	-0.19426495217736273	2.0358163572647903	-0.5399082922555687	-0.17583155925649732	1.9683685878381663	-0.43487087514131023	-0.17694992190561148	1.8857280947684347	-0.4019328053640582	-0.1936983102517408	1.816077049545571	-0.4032189412105627	-1.708537298542841	1.887556972354656	1.1097176062191336	-0.14086969789035111	1.8947975922580846	-0.618558827929544	-0.1457079879694376	1.822914681395043	-0.6175308710646612
90	3.0	-0.1773743810542119	1.8247434361097425	-0.5087373749083012	-0.18491429194789474	1.8209633318789564	-0.451125986413266	-0.1583725611991883	1.702482801642628	-0.45189890093143226	-0.12792445123682822	1.5894004950597225	-0.449629059971508	-0.16493008801429673	1.5611681013995644	-0.44142039236655434				-0.11979395233817446	1.5842362154786167	-0.454297544619135	-0.1697870327580651	1.825990819933815	-0.5695585925492539	-0.1787219094810859	1.6970906078289936	-0.527074230392151	-0.1994609236461636	1.5564644831840484	-0.5156017190398943	-0.24750247764068745	1.515811743778947	-0.5325674004801235	-0.23795937692590532	1.5247707820998264	-0.5466846480794056	-0.18983108988618624	1.5412545588468505	-0.5200002400127751	-0.165683230562033	1.9727610438573813	-0.5289236851564196	-0.19819329707623914	2.037801689790228	-0.5356936656965406	-0.18066171244314672	1.9697097578101925	-0.4424552488632672	-0.18356452409783777	1.8885159512394492	-0.4076616604595237	-0.19819957814733266	1.8174003048953156	-0.40240188544453054	-1.687446142575573	1.8877179861793913	1.073107357042049	-0.1437445840553335	1.8954728537702454	-0.6193010720264092	-0.15516831828502553	1.8244101169228406	-0.6240411946039671
